# xmcd
#
# Track frame offsets: 
#        150
#        17688
#        34027
#        50443
#        70398
#        92303
#        105522
#        126375
#        144505
#        158720
#        181865
#
# Disc length: 2781 seconds
#
# Revision: 0
# Processed by: cddbd v1.5.2PL0 Copyright (c) Steve Scherf et al.
# Submitted via: ExactAudioCopy v1.3
#
DISCID=880adb0b
DTITLE=The Blues Mystery - Diesel Rock
DYEAR=2015
DGENRE=Blues Rock
TTITLE0=Grimaces On The Bad Mood
TTITLE1=Don't Get Close To Me Today
TTITLE2=The Motorbikes Are Roaring
TTITLE3=Wild Love ( Tamed By The Child )
TTITLE4=Half A Man
TTITLE5=I'm Coming Back
TTITLE6=A Daughter Can Break Your Heart
TTITLE7=With Just One Look
TTITLE8=Son
TTITLE9=Diesel Rock
TTITLE10=Over The Mountains
EXTD=
EXTT0=
EXTT1=
EXTT2=
EXTT3=
EXTT4=
EXTT5=
EXTT6=
EXTT7=
EXTT8=
EXTT9=
EXTT10=
PLAYORDER=
